<?xml version="1.0" encoding="UTF-8"?>
<svg viewBox="0 0 80 80" xmlns="http://www.w3.org/2000/svg">
    <defs>
        <linearGradient id="b" x1=".21493" x2=".78507" y1="-.16781" y2="1.1678">
            <stop stop-color="#ff7b59" offset="0"/>
            <stop stop-color="#e16173" offset="1"/>
        </linearGradient>
        <linearGradient id="c" x1=".1585" x2=".8415" y1="-.09132" y2="1.0913">
            <stop stop-color="#729fcf" offset="0"/>
            <stop stop-color="#3465a4" offset="1"/>
        </linearGradient>
        <linearGradient id="d" x1=".32928" x2=".67027" y1="-.09447" y2="1.0945">
            <stop stop-color="#3faf46" offset="0"/>
            <stop stop-color="#069a2e" offset="1"/>
        </linearGradient>
    </defs>
    <defs>
        <clipPath id="a">
            <rect x="-5448.5" y="-4661.3" width="21590" height="27940"/>
        </clipPath>
    </defs>
    <g class="SlideGroup" transform="matrix(.0097671 0 0 .0097671 -.54861 -2.3086)">
        <g class="Slide" clip-path="url(#a)">
            <g class="Page">
                <g class="com.sun.star.drawing.PolyPolygonShape">
                    <rect class="BoundingBox" x="111.53" y="1344.7" width="8080" height="5974" fill="none"/>
                    <path d="m8189.5 3103.7h-2l-4020 4213-4053-4213h-2l1-1-1-1h2l2018-1756h4038l2017 1756h2l-1 1 1 1z"
                          fill="url(#b)"/>
                    <path d="m8189.5 3103.7h-2l-4020 4213-4053-4213h-2l1-1-1-1h2l2018-1756h4038l2017 1756h2l-1 1 1 1z"
                          fill="none" stroke="#ffaa95"/>
                </g>
                <g class="com.sun.star.drawing.CustomShape">
                    <rect class="BoundingBox" x="630.53" y="1734.7" width="2859" height="2859" fill="none"/>
                    <path d="m3488.5 3163.7-3 94-9 93-16 92-21 91-27 89-33 87-38 86-44 83-50 79-55 76-59 72-64 68-68 64-72 59-76 55-79 50-83 44-86 38-87 33-89 27-91 21-92 16-93 9-94 3-94-3-93-9-92-16-91-21-89-27-87-33-86-38-82-44-80-50-76-55-72-59-68-64-64-68-59-72-55-76-50-79-44-83-38-86-33-87-27-89-21-91-16-92-9-93-3-94 3-94 9-93 16-92 21-91 27-89 33-87 38-86 44-82 50-80 55-76 59-72 64-68 68-64 72-59 76-55 79-50 83-44 86-38 87-33 89-27 91-21 92-16 93-9 94-3 94 3 93 9 92 16 91 21 89 27 87 33 86 38 82 44 80 50 76 55 72 59 68 64 64 68 59 72 55 76 50 79 44 83 38 86 33 87 27 89 21 91 16 92 9 93 3 94z"
                          fill="url(#c)"/>
                </g>
                <g class="com.sun.star.drawing.CustomShape">
                    <rect class="BoundingBox" x="5055.5" y="3637.7" width="2224" height="2224" fill="none"/>
                    <path d="m6167.5 5860.7h-1112v-2223h2223v2223h-1111z" fill="url(#d)"/>
                </g>
                <g class="Group">
                    <g class="com.sun.star.drawing.CustomShape">
                        <rect class="BoundingBox" x="3668.5" y="1652.7" width="2196" height="1565" fill="none"/>
                        <path d="m5042.5 2699.7-4-27-5-29-6-27-8-29-10-26-12-27-12-25-14-26-14-25-16-23-17-23-18-22-20-21-20-20-22-19-23-18-23-17-24-15-24-14-26-14-27-11-26-11-27-9-56-14-28-5-28-2-29-2-29-1-28 1-29 3-29 4-27 5-29 6-27 8-27 10-26 11-26 12-25 13-25 15-24 16-44 36-42 40-398-371 39-41 42-38 43-36 45-33 47-32 48-29 50-27 50-24 52-21 54-19 53-15 55-13 55-12 57-7 56-4 56-3 56 1 56 4 56 6 55 9 55 13 55 15 53 17 53 20 51 24 50 25 49 28 47 31 46 33 45 34 41 38 41 39 38 41 36 43 34 46 32 47 28 48 27 49 24 51 22 52 18 53 16 54 13 55 12 55 7 56 276-32-485 609-610-484 275-33z"
                              fill="#c9211e"/>
                    </g>
                    <g class="com.sun.star.drawing.CustomShape">
                        <rect class="BoundingBox" x="2573.5" y="4535.7" width="2114" height="1664" fill="none"/>
                        <path d="m3399.5 5087.7 1 28 2 29 3 28 5 29 7 27 8 28 9 27 11 27 12 26 13 25 14 25 16 24 17 23 18 22 19 21 21 21 21 19 22 18 23 17 24 16 50 28 26 12 54 20 27 8 28 6 28 5 29 4 28 2 29 1 29-1 28-2 29-3 28-5 28-7 27-8 27-9 27-10 26-12 26-13 24-15 24-16 23-17 23-18 353 414-43 36-46 33-47 31-48 28-50 26-51 24-53 21-53 18-54 15-55 13-55 9-56 7-56 5-57 1-56-2-56-4-56-7-55-10-55-13-54-15-53-19-53-21-51-23-50-26-48-29-47-31-45-33-44-36-42-38-40-39-37-42-36-44-33-45-31-47-29-49-26-50-23-51-21-52-18-53-16-55-12-54-10-56-7-56-5-56-1-56h-278l551-550 551 550-277 1z"
                              fill="#c9211e"/>
                    </g>
                </g>
            </g>
        </g>
    </g>
</svg>
